<svg width="40" height="31" viewBox="0 0 40 31" fill="none" xmlns="http://www.w3.org/2000/svg">
<g clip-path="url(#clip0_254_728)">
<mask id="mask0_254_728" style="mask-type:luminance" maskUnits="userSpaceOnUse" x="0" y="0" width="40" height="31">
<path d="M40 0H0V30.9859H40V0Z" fill="white"/>
</mask>
<g mask="url(#mask0_254_728)">
<path d="M33.8617 2.75929C31.3122 1.58949 28.5783 0.727627 25.7198 0.234004C25.6678 0.224478 25.6158 0.248285 25.589 0.295902C25.2374 0.921261 24.8479 1.73709 24.5752 2.37833C21.5007 1.91805 18.442 1.91805 15.4305 2.37833C15.1577 1.72284 14.7541 0.921261 14.401 0.295902C14.3741 0.249874 14.3221 0.226066 14.2701 0.234004C11.4132 0.726049 8.67927 1.58791 6.12823 2.75929C6.10614 2.76881 6.08721 2.7847 6.07465 2.80532C0.888986 10.5526 -0.531584 18.1094 0.1653 25.5726C0.168453 25.6091 0.18895 25.644 0.21733 25.6662C3.63868 28.1788 6.95285 29.7041 10.2055 30.7152C10.2575 30.7311 10.3127 30.712 10.3458 30.6691C11.1152 29.6184 11.8011 28.5106 12.3891 27.3455C12.4238 27.2773 12.3907 27.1963 12.3198 27.1693C11.2319 26.7566 10.196 26.2535 9.19955 25.6821C9.12073 25.6361 9.11442 25.5233 9.18693 25.4694C9.39662 25.3122 9.60637 25.1488 9.80659 24.9837C9.84282 24.9535 9.8933 24.9472 9.93589 24.9662C16.4821 27.955 23.5692 27.955 30.0383 24.9662C30.0808 24.9456 30.1313 24.952 30.1691 24.9821C30.3694 25.1472 30.5791 25.3122 30.7904 25.4694C30.8629 25.5233 30.8581 25.6361 30.7793 25.6821C29.7829 26.2646 28.747 26.7566 27.6575 27.1677C27.5866 27.1947 27.555 27.2773 27.5897 27.3455C28.1904 28.5089 28.8763 29.6168 29.6315 30.6676C29.663 30.712 29.7198 30.7311 29.7718 30.7152C33.0402 29.7041 36.3544 28.1788 39.7757 25.6662C39.8057 25.644 39.8246 25.6107 39.8278 25.5742C40.6618 16.9459 38.4308 9.45106 33.9137 2.80689C33.9026 2.7847 33.8838 2.76881 33.8617 2.75929ZM13.3667 21.0283C11.3958 21.0283 9.77189 19.2189 9.77189 16.9968C9.77189 14.7746 11.3643 12.9652 13.3667 12.9652C15.3848 12.9652 16.993 14.7905 16.9615 16.9968C16.9615 19.2189 15.369 21.0283 13.3667 21.0283ZM26.6579 21.0283C24.6871 21.0283 23.0632 19.2189 23.0632 16.9968C23.0632 14.7746 24.6556 12.9652 26.6579 12.9652C28.6761 12.9652 30.2842 14.7905 30.2527 16.9968C30.2527 19.2189 28.6761 21.0283 26.6579 21.0283Z" fill="white"/>
</g>
</g>
<defs>
<clipPath id="clip0_254_728">
<rect width="40" height="30.9859" fill="white"/>
</clipPath>
</defs>
</svg>
