<svg width="40" height="40" viewBox="0 0 40 40" fill="none" xmlns="http://www.w3.org/2000/svg">
<g clip-path="url(#clip0_254_857)">
<path d="M20.0002 0C8.95583 0 0 8.95417 0 20.0002C0 28.8368 5.73066 36.3337 13.6773 38.9783C14.6769 39.1634 15.0438 38.5444 15.0438 38.0161C15.0438 37.5392 15.0253 35.9637 15.0167 34.2925C9.45262 35.5024 8.27853 31.9328 8.27853 31.9328C7.36874 29.621 6.05788 29.0063 6.05788 29.0063C4.24326 27.765 6.19466 27.7905 6.19466 27.7905C8.20302 27.9316 9.26053 29.8515 9.26053 29.8515C11.0443 32.9091 13.9393 32.0252 15.0806 31.5141C15.2601 30.2215 15.7784 29.3392 16.3504 28.8397C11.9081 28.334 7.23825 26.6191 7.23825 18.9556C7.23825 16.772 8.01954 14.9879 9.29894 13.5872C9.09129 13.0835 8.40671 11.0493 9.49269 8.29443C9.49269 8.29443 11.1722 7.7569 14.9942 10.3445C16.5895 9.90139 18.3005 9.67916 20.0002 9.67154C21.6999 9.67916 23.4121 9.90139 25.0105 10.3445C28.8278 7.7569 30.505 8.29443 30.505 8.29443C31.5936 11.0493 30.9087 13.0835 30.7011 13.5872C31.9834 14.9879 32.7594 16.772 32.7594 18.9556C32.7594 26.6373 28.0806 28.3287 23.6271 28.8238C24.3444 29.4445 24.9836 30.6616 24.9836 32.5276C24.9836 35.2036 24.9605 37.3574 24.9605 38.0161C24.9605 38.5484 25.3205 39.172 26.3343 38.9756C34.2766 36.328 40 28.8338 40 20.0002C40 8.95417 31.0455 0 20.0002 0ZM7.49071 28.4907C7.44666 28.59 7.29034 28.6198 7.14793 28.5516C7.00286 28.4864 6.92139 28.3509 6.96842 28.2512C7.01147 28.1489 7.16813 28.1204 7.31286 28.1889C7.45826 28.2542 7.54105 28.391 7.49071 28.4907ZM8.4745 29.3685C8.37911 29.4569 8.19265 29.4158 8.06614 29.2761C7.93531 29.1366 7.91081 28.9502 8.00751 28.8604C8.10588 28.772 8.28671 28.8134 8.41786 28.9528C8.54869 29.0939 8.57419 29.2791 8.4745 29.3685ZM9.14941 30.4916C9.02687 30.5767 8.8265 30.4969 8.70263 30.3191C8.58009 30.1412 8.58009 29.9279 8.70528 29.8425C8.82948 29.757 9.02687 29.8339 9.15239 30.0104C9.2746 30.1912 9.2746 30.4045 9.14941 30.4916ZM10.2908 31.7924C10.1812 31.9133 9.94772 31.8808 9.77682 31.7159C9.60195 31.5546 9.55327 31.3257 9.66322 31.2048C9.77417 31.0836 10.009 31.1177 10.1812 31.2813C10.3548 31.4423 10.4077 31.6728 10.2908 31.7924ZM11.766 32.2315C11.7177 32.3881 11.4928 32.4594 11.2662 32.3928C11.04 32.3242 10.892 32.1407 10.9377 31.9824C10.9847 31.8248 11.2106 31.7506 11.4388 31.8218C11.6647 31.89 11.813 32.0722 11.766 32.2315ZM13.4448 32.4178C13.4505 32.5827 13.2584 32.7195 13.0206 32.7225C12.7815 32.7278 12.588 32.5943 12.5854 32.432C12.5854 32.2654 12.7732 32.1299 13.0123 32.126C13.2501 32.1213 13.4448 32.2538 13.4448 32.4178ZM15.0941 32.3545C15.1226 32.5155 14.9573 32.6808 14.7212 32.7248C14.489 32.7672 14.274 32.6678 14.2446 32.5082C14.2158 32.3433 14.384 32.178 14.6158 32.1353C14.8523 32.0942 15.0639 32.1909 15.0941 32.3545Z" fill="#C8DEF9"/>
</g>
<defs>
<clipPath id="clip0_254_857">
<rect width="40" height="39.0625" fill="white"/>
</clipPath>
</defs>
</svg>
