<svg width="300" height="140" viewBox="0 0 300 140" fill="none" xmlns="http://www.w3.org/2000/svg">
<path d="M248.279 62.2392C251.213 62.2392 253.592 59.8629 253.592 56.9316C253.592 54.0003 251.213 51.624 248.279 51.624C245.345 51.624 242.967 54.0003 242.967 56.9316C242.967 59.8629 245.345 62.2392 248.279 62.2392Z" fill="#FF4500"/>
<path d="M172.402 79.5638C175.008 79.5638 176.512 77.611 176.412 75.7083C176.362 74.7069 176.261 74.056 176.161 73.5552C174.557 66.6454 168.944 61.5381 162.279 61.5381C154.36 61.5381 147.945 68.6983 147.945 77.5109C147.945 86.3235 154.36 93.4837 162.279 93.4837C167.24 93.4837 170.799 91.6811 173.354 88.8271C174.607 87.4251 174.357 85.272 172.853 84.2205C171.6 83.3693 170.047 83.6697 168.894 84.6211C167.792 85.5724 165.687 87.4751 162.279 87.4751C158.269 87.4751 154.861 84.0202 154.11 79.4637H172.402V79.5638ZM162.229 67.5967C165.837 67.5967 168.944 70.4007 170.097 74.2563H154.36C155.513 70.3507 158.62 67.5967 162.229 67.5967Z" fill="white"/>
<path d="M148.246 64.6928C148.246 63.1907 147.143 61.989 145.74 61.7386C141.38 61.0877 137.27 62.69 134.915 65.6442V65.2436C134.915 63.391 133.411 62.2393 131.908 62.2393C130.254 62.2393 128.901 63.5912 128.901 65.2436V89.7787C128.901 91.3809 130.104 92.783 131.707 92.8831C133.461 92.9832 134.915 91.6313 134.915 89.8788V77.2107C134.915 71.6027 139.125 66.9961 144.938 67.647C145.139 67.647 145.339 67.647 145.54 67.647C147.043 67.5469 148.246 66.245 148.246 64.6928Z" fill="white"/>
<path d="M251.286 67.8969C251.286 66.2445 249.933 64.8926 248.279 64.8926C246.625 64.8926 245.272 66.2445 245.272 67.8969C245.272 67.997 245.272 88.9269 245.272 89.8783C245.272 91.5306 246.625 92.8826 248.279 92.8826C249.933 92.8826 251.286 91.5306 251.286 89.8783C251.286 88.977 251.286 68.0471 251.286 67.8969Z" fill="white"/>
<path d="M206.582 51.2728C206.582 49.6205 205.229 48.2686 203.575 48.2686C201.921 48.2686 200.568 49.6205 200.568 51.2728V64.6419C198.513 62.589 195.957 61.5876 192.9 61.5876C184.982 61.5876 178.567 68.7478 178.567 77.5604C178.567 86.373 184.982 93.5332 192.9 93.5332C195.957 93.5332 198.563 92.4817 200.618 90.4288C200.869 91.8308 202.122 92.8823 203.575 92.8823C205.229 92.8823 206.582 91.5304 206.582 89.878V51.2728ZM192.95 87.5747C188.339 87.5747 184.631 83.1183 184.631 77.5604C184.631 72.0525 188.339 67.5461 192.95 67.5461C197.561 67.5461 201.27 72.0025 201.27 77.5604C201.27 83.1183 197.511 87.5747 192.95 87.5747Z" fill="white"/>
<path d="M237.955 51.2728C237.955 49.6205 236.602 48.2686 234.948 48.2686C233.294 48.2686 231.941 49.6205 231.941 51.2728V64.6419C229.886 62.589 227.33 61.5876 224.273 61.5876C216.355 61.5876 209.94 68.7478 209.94 77.5604C209.94 86.373 216.355 93.5332 224.273 93.5332C227.33 93.5332 229.937 92.4817 231.991 90.4288C232.242 91.8308 233.495 92.8823 234.948 92.8823C236.602 92.8823 237.955 91.5304 237.955 89.878V51.2728ZM224.273 87.5747C219.663 87.5747 215.954 83.1183 215.954 77.5604C215.954 72.0525 219.663 67.5461 224.273 67.5461C228.884 67.5461 232.593 72.0025 232.593 77.5604C232.593 83.1183 228.884 87.5747 224.273 87.5747Z" fill="white"/>
<path d="M266.522 89.9281V67.5962H269.178C270.581 67.5962 271.834 66.5447 271.935 65.0926C272.035 63.5404 270.782 62.2385 269.278 62.2385H266.522V58.0325C266.522 56.4302 265.319 55.0282 263.715 54.9281C261.961 54.8279 260.508 56.1799 260.508 57.9324V62.2886H258.002C256.599 62.2886 255.346 63.3401 255.246 64.7922C255.145 66.3444 256.398 67.6462 257.902 67.6462H260.458V89.9781C260.458 91.6305 261.811 92.9824 263.465 92.9824C265.219 92.8823 266.522 91.5804 266.522 89.9281Z" fill="white"/>
<path d="M70.0635 111.96C93.2583 111.96 112.061 93.1738 112.061 70C112.061 46.8261 93.2583 28.04 70.0635 28.04C46.8686 28.04 28.0655 46.8261 28.0655 70C28.0655 93.1738 46.8686 111.96 70.0635 111.96Z" fill="#FF4500"/>
<path d="M98.0789 70.0003C98.0789 66.5954 95.3224 63.8915 91.9646 63.8915C90.3107 63.8915 88.8072 64.5425 87.7046 65.594C83.4948 62.5897 77.7314 60.6369 71.3164 60.3865L74.123 47.2678L83.2442 49.2206C83.3445 51.5239 85.2489 53.3765 87.6044 53.3765C90.01 53.3765 91.9646 51.4237 91.9646 49.0203C91.9646 46.6169 90.01 44.6641 87.6044 44.6641C85.9004 44.6641 84.3969 45.6655 83.6953 47.1176L73.5216 44.9645C73.2209 44.9144 72.9202 44.9645 72.7197 45.1147C72.4691 45.2649 72.3187 45.5153 72.2686 45.8157L69.1614 60.4366C62.6462 60.6369 56.7825 62.5897 52.5226 65.644C51.42 64.5925 49.9165 63.9416 48.2626 63.9416C44.8547 63.9416 42.1483 66.6955 42.1483 70.0503C42.1483 72.5539 43.6519 74.6569 45.7568 75.6083C45.6565 76.2091 45.6064 76.81 45.6064 77.4609C45.6064 86.8744 56.582 94.5353 70.1136 94.5353C83.6452 94.5353 94.6208 86.9244 94.6208 77.4609C94.6208 76.8601 94.5707 76.2091 94.4704 75.6083C96.5753 74.6569 98.0789 72.5038 98.0789 70.0003ZM56.0809 74.3565C56.0809 71.953 58.0354 70.0003 60.441 70.0003C62.8466 70.0003 64.8012 71.953 64.8012 74.3565C64.8012 76.7599 62.8466 78.7127 60.441 78.7127C58.0354 78.7628 56.0809 76.7599 56.0809 74.3565ZM80.4878 85.923C77.4808 88.9273 71.7675 89.1276 70.1136 89.1276C68.4096 89.1276 62.6963 88.8772 59.7394 85.923C59.2883 85.4724 59.2883 84.7714 59.7394 84.3207C60.1904 83.8701 60.8921 83.8701 61.3431 84.3207C63.2476 86.2234 67.2569 86.8744 70.1136 86.8744C72.9703 86.8744 77.0297 86.2234 78.8841 84.3207C79.3351 83.8701 80.0368 83.8701 80.4878 84.3207C80.8887 84.7714 80.8887 85.4724 80.4878 85.923ZM79.6859 78.7628C77.2803 78.7628 75.3258 76.81 75.3258 74.4066C75.3258 72.0031 77.2803 70.0503 79.6859 70.0503C82.0916 70.0503 84.0461 72.0031 84.0461 74.4066C84.0461 76.7599 82.0916 78.7628 79.6859 78.7628Z" fill="white"/>
</svg>
