<svg width="300" height="46" viewBox="0 0 300 46" fill="none" xmlns="http://www.w3.org/2000/svg">
<path d="M294.53 4.50538C294.774 4.69375 294.726 4.95388 294.726 5.04159C294.726 5.1293 294.735 5.35355 294.53 5.51401C294.175 5.79508 293.188 5.66451 293.188 5.66451V4.37979C293.188 4.37979 294.287 4.31601 294.53 4.50538ZM296.574 9.24657L295.426 6.63827C295.679 6.52066 295.913 6.32631 296.107 6.01534C296.302 5.72332 296.419 5.39242 296.419 5.04159C296.419 4.69076 296.321 4.34092 296.146 4.02896C295.99 3.718 295.737 3.48478 295.426 3.28943C295.067 3.12136 294.674 3.03491 294.277 3.03627H291.513V9.24557H293.188V6.91136H293.713L294.648 9.24757L296.574 9.24657ZM297.742 4.37979C297.957 4.92498 298.073 5.50903 298.073 6.15089C298.073 6.96817 297.879 7.7087 297.509 8.38943C297.148 9.03926 296.617 9.57797 295.971 9.94724C295.31 10.317 294.589 10.4924 293.791 10.4924C292.973 10.4924 292.253 10.2971 291.63 9.94724C290.984 9.57311 290.447 9.03596 290.073 8.38943C289.703 7.72763 289.528 6.96916 289.528 6.15089C289.508 5.29474 289.683 4.53627 290.073 3.87348C290.434 3.22392 290.966 2.68554 291.611 2.31667C292.281 1.95688 293.03 1.76952 293.791 1.77149C294.414 1.77149 294.979 1.8881 295.485 2.10238C296.01 2.33561 296.477 2.62763 296.866 3.01733C297.255 3.38611 297.548 3.83461 297.742 4.37979ZM299.299 8.4283C299.607 7.70843 299.766 6.93382 299.768 6.15089C299.768 5.35355 299.611 4.57415 299.299 3.83461C298.991 3.12673 298.549 2.48557 297.996 1.9469C297.455 1.38703 296.806 0.943126 296.088 0.642252C295.362 0.332766 294.58 0.173749 293.791 0.17481C292.993 0.17481 292.234 0.330292 291.513 0.642252C290.803 0.941221 290.15 1.36294 289.586 1.8881C289.04 2.45097 288.604 3.1112 288.301 3.83461C287.992 4.56763 287.833 5.35534 287.835 6.15089C287.835 6.93029 287.99 7.68876 288.301 8.4283C288.613 9.2077 289.042 9.84956 289.587 10.3559C290.135 10.9063 290.791 11.3373 291.513 11.6217C292.228 11.948 293.005 12.114 293.791 12.108C294.588 12.108 295.349 11.9526 296.088 11.6217C296.828 11.3097 297.47 10.9011 297.996 10.3559C298.551 9.80422 298.994 9.14947 299.299 8.4283ZM55.2199 16.2622C56.4809 16.2621 57.7296 16.5103 58.8946 16.9928C60.0596 17.4753 61.1182 18.1826 62.0099 19.0743C62.9015 19.9659 63.6088 21.0245 64.0913 22.1895C64.5738 23.3545 64.8221 24.6032 64.8219 25.8642C64.8214 28.4103 63.8095 30.852 62.0088 32.6522C60.2081 34.4523 57.7661 35.4634 55.2199 35.4632C52.6741 35.4629 50.2326 34.4515 48.4323 32.6515C46.6321 30.8514 45.6205 28.41 45.6199 25.8642C45.6198 24.6034 45.868 23.3549 46.3504 22.19C46.8328 21.0251 47.5398 19.9666 48.4313 19.075C49.3227 18.1833 50.3811 17.476 51.5459 16.9934C52.7107 16.5108 53.9591 16.2623 55.2199 16.2622ZM55.2199 6.05521C49.9664 6.05547 44.9282 8.1426 41.2135 11.8575C37.4988 15.5723 35.412 20.6107 35.412 25.8642C35.412 31.1178 37.499 36.1563 41.2139 39.8712C44.9288 43.5861 49.9673 45.6731 55.2209 45.6731C57.8223 45.6731 60.3982 45.1608 62.8015 44.1653C65.2048 43.1698 67.3885 41.7107 69.228 39.8712C71.0674 38.0318 72.5265 35.8481 73.522 33.4447C74.5175 31.0414 75.0299 28.4655 75.0299 25.8642C75.0299 23.2627 74.5175 20.6868 73.5219 18.2834C72.5264 15.88 71.0672 13.6962 69.2276 11.8568C67.3881 10.0173 65.2042 8.55823 62.8008 7.56279C60.3973 6.56736 57.8214 6.05508 55.2199 6.05521ZM271.227 25.5791H277.209L274.229 15.8266L271.227 25.5791ZM283.349 45.6702L280.189 35.3316H268.269L265.086 45.6702H254.928L264.905 12.9821C266.26 8.33162 269.376 6.00737 274.229 6.00737C279.06 6.00737 282.175 8.33162 283.53 12.9821L293.553 45.6702H283.349ZM243.351 45.6702V6.05222H253.08V45.6702H243.351ZM215.986 15.8276V35.9197C225.377 35.9197 230.096 32.5559 230.096 25.8054C230.096 19.1685 225.377 15.8276 215.986 15.8276ZM215.986 6.00836C232.039 6.00836 240.066 12.6223 240.066 25.8054C240.066 39.0572 232.039 45.6712 215.986 45.6712H206.017V6.00737L215.986 6.00836ZM197.119 30.6821H185.526V35.9197H202.565V45.6712H185.39C178.947 45.6712 175.748 42.421 175.748 35.9197V6.00737H202.519V15.8047H185.526V20.9286H197.119V30.6821ZM153.135 15.6921V25.4675C159.839 25.4675 163.216 23.8419 163.216 20.5908C163.216 17.3406 159.863 15.6921 153.135 15.6921ZM143.192 6.00836H156.094C167.516 6.00836 173.228 10.8841 173.228 20.6137C173.228 30.3662 167.725 35.2419 156.764 35.2419H153.156V45.6712H143.192V6.00836ZM108.829 6.07514H139.982V15.8506H129.282V45.6712H119.53V15.8506H108.829V6.07514ZM78.002 45.6712L77.9801 15.8276C77.9801 10.0818 82.2817 6.00836 87.9718 6.00836H106.109V15.8276H87.9708V20.9525H101.77V30.6821H87.9708V45.6722L78.002 45.6712ZM0.233215 35.9187V45.6702C5.97607 45.6702 10.9196 45.3542 15.0638 44.7672C18.0608 44.3386 20.708 43.7516 22.9545 42.9831C24.6528 42.3971 26.1259 41.7203 27.4246 40.9519C29.4967 39.711 31.0694 38.1981 32.1189 36.3921C32.6422 35.512 33.0419 34.5642 33.3169 33.5705L33.6419 30.726C33.6419 29.6874 33.4924 28.6947 33.2173 27.724C32.9416 26.8363 32.5556 25.9868 32.0681 25.1954C31.2698 23.9087 30.1455 22.8024 28.7472 21.8545C27.7254 21.2094 26.6477 20.6577 25.5269 20.206C24.3777 19.7775 22.5797 19.2133 20.1329 18.5137C18.5103 18.0622 17.3621 17.7233 16.6874 17.4751C15.9389 17.226 15.3389 16.9778 14.8395 16.7077C14.5376 16.5826 14.2592 16.407 14.0163 16.1884C13.8169 16.0529 13.7412 15.9393 13.7412 15.8047H31.1193V6.05222H13.8169C9.54617 6.05222 6.50032 7.9479 4.6774 11.7632C2.72989 15.8266 3.45348 19.5293 6.80032 22.8472C7.72325 23.7731 8.8475 24.5854 10.1711 25.2851C11.5933 26.0306 13.5917 26.7751 16.1382 27.4977C18.885 28.311 20.2076 28.6718 20.0581 28.627C20.9821 28.92 21.7066 29.1911 22.2558 29.4393L23.2794 29.9815C23.7279 30.2974 23.8286 30.8167 23.5784 31.5612C23.3043 31.923 22.8548 32.3067 22.2558 32.6675C20.708 33.6153 18.3359 34.3609 15.1395 34.8801C11.1947 35.5798 6.22524 35.9187 0.233215 35.9187Z" fill="white"/>
</svg>
