<svg width="301" height="47" viewBox="0 0 301 47" fill="none" xmlns="http://www.w3.org/2000/svg">
<path d="M294.866 5.11475C295.11 5.30312 295.062 5.56326 295.062 5.65096C295.062 5.73867 295.07 5.96292 294.866 6.12339C294.511 6.40445 293.524 6.27389 293.524 6.27389V4.98917C293.524 4.98917 294.623 4.92538 294.866 5.11475ZM296.91 9.85595L295.762 7.24764C296.015 7.13003 296.249 6.93568 296.443 6.62472C296.638 6.33269 296.755 6.00179 296.755 5.65096C296.755 5.30013 296.657 4.9503 296.482 4.63834C296.326 4.32737 296.073 4.09415 295.762 3.8988C295.402 3.73074 295.01 3.64429 294.613 3.64565H291.849V9.85495H293.524V7.52073H294.049L294.984 9.85694L296.91 9.85595ZM298.078 4.98917C298.293 5.53435 298.409 6.1184 298.409 6.76027C298.409 7.57754 298.215 8.31807 297.845 8.9988C297.484 9.64863 296.952 10.1873 296.307 10.5566C295.646 10.9264 294.925 11.1018 294.127 11.1018C293.309 11.1018 292.589 10.9064 291.966 10.5566C291.32 10.1825 290.783 9.64533 290.409 8.9988C290.039 8.33701 289.864 7.57854 289.864 6.76027C289.844 5.90412 290.019 5.14565 290.409 4.48286C290.77 3.8333 291.302 3.29491 291.947 2.92605C292.617 2.56626 293.366 2.3789 294.127 2.38086C294.75 2.38086 295.315 2.49747 295.821 2.71176C296.346 2.94498 296.813 3.23701 297.202 3.62671C297.591 3.99548 297.884 4.44399 298.078 4.98917ZM299.635 9.03767C299.943 8.3178 300.102 7.54319 300.104 6.76027C300.104 5.96292 299.947 5.18352 299.635 4.44399C299.327 3.73611 298.885 3.09494 298.332 2.55628C297.791 1.9964 297.142 1.5525 296.424 1.25163C295.698 0.942141 294.916 0.783124 294.127 0.784185C293.329 0.784185 292.57 0.939667 291.849 1.25163C291.139 1.5506 290.486 1.97231 289.922 2.49747C289.376 3.06034 288.94 3.72058 288.637 4.44399C288.328 5.17701 288.169 5.96471 288.17 6.76027C288.17 7.53967 288.326 8.29814 288.637 9.03767C288.949 9.81708 289.377 10.4589 289.923 10.9652C290.471 11.5157 291.127 11.9466 291.849 12.231C292.564 12.5574 293.341 12.7234 294.127 12.7174C294.924 12.7174 295.684 12.5619 296.424 12.231C297.164 11.9191 297.806 11.5104 298.332 10.9652C298.887 10.4136 299.33 9.75885 299.635 9.03767ZM55.5559 16.8716C56.8169 16.8714 58.0655 17.1197 59.2305 17.6022C60.3956 18.0847 61.4541 18.792 62.3458 19.6836C63.2374 20.5753 63.9447 21.6338 64.4272 22.7989C64.9097 23.9639 65.158 25.2126 65.1579 26.4736C65.1573 29.0197 64.1454 31.4614 62.3447 33.2615C60.544 35.0617 58.102 36.0728 55.5559 36.0726C53.01 36.0723 50.5685 35.0609 48.7683 33.2608C46.968 31.4608 45.9564 29.0194 45.9559 26.4736C45.9557 25.2127 46.2039 23.9642 46.6863 22.7993C47.1687 21.6344 47.8758 20.576 48.7672 19.6843C49.6587 18.7927 50.717 18.0854 51.8818 17.6028C53.0466 17.1202 54.295 16.8717 55.5559 16.8716ZM55.5559 6.66458C50.3024 6.66485 45.2641 8.75198 41.5495 12.4668C37.8348 16.1817 35.7479 21.2201 35.7479 26.4736C35.7479 31.7272 37.8349 36.7657 41.5498 40.4806C45.2647 44.1955 50.3032 46.2825 55.5569 46.2825C58.1582 46.2825 60.7341 45.7702 63.1374 44.7747C65.5408 43.7792 67.7245 42.32 69.5639 40.4806C71.4034 38.6412 72.8625 36.4575 73.858 34.0541C74.8535 31.6508 75.3658 29.0749 75.3658 26.4736C75.3658 23.8721 74.8534 21.2962 73.8579 18.8928C72.8623 16.4894 71.4031 14.3056 69.5636 12.4661C67.724 10.6267 65.5402 9.1676 63.1367 8.17217C60.7333 7.17673 58.1573 6.66445 55.5559 6.66458ZM271.563 26.1885H277.545L274.565 16.436L271.563 26.1885ZM283.685 46.2795L280.525 35.941H268.605L265.422 46.2795H255.264L265.241 13.5915C266.596 8.941 269.712 6.61674 274.565 6.61674C279.396 6.61674 282.511 8.941 283.866 13.5915L293.889 46.2795H283.685ZM243.687 46.2795V6.66159H253.416V46.2795H243.687ZM216.322 16.437V36.529C225.713 36.529 230.432 33.1652 230.432 26.4148C230.432 19.7779 225.713 16.437 216.322 16.437ZM216.322 6.61774C232.374 6.61774 240.402 13.2317 240.402 26.4148C240.402 39.6666 232.374 46.2805 216.322 46.2805H206.353V6.61674L216.322 6.61774ZM197.455 31.2915H185.862V36.529H202.901V46.2805H185.726C179.282 46.2805 176.084 43.0304 176.084 36.529V6.61674H202.855V16.4141H185.862V21.538H197.455V31.2915ZM153.47 16.3015V26.0769C160.175 26.0769 163.552 24.4513 163.552 21.2001C163.552 17.95 160.199 16.3015 153.47 16.3015ZM143.528 6.61774H156.43C167.852 6.61774 173.564 11.4935 173.564 21.2231C173.564 30.9755 168.061 35.8513 157.1 35.8513H153.492V46.2805H143.528V6.61774ZM109.165 6.68452H140.318V16.4599H129.618V46.2805H119.866V16.4599H109.165V6.68452ZM78.3379 46.2805L78.316 16.437C78.316 10.6912 82.6177 6.61774 88.3077 6.61774H106.445V16.437H88.3067V21.5619H102.106V31.2915H88.3067V46.2815L78.3379 46.2805ZM0.569153 36.528V46.2795C6.31201 46.2795 11.2555 45.9636 15.3997 45.3765C18.3967 44.948 21.0439 44.3609 23.2904 43.5925C24.9888 43.0064 26.4618 42.3297 27.7605 41.5613C29.8326 40.3204 31.4054 38.8074 32.4549 37.0015C32.9781 36.1214 33.3778 35.1736 33.6529 34.1799L33.9778 31.3353C33.9778 30.2968 33.8283 29.3041 33.5532 28.3334C33.2776 27.4457 32.8915 26.5962 32.404 25.8048C31.6057 24.5181 30.4814 23.4118 29.0831 22.4639C28.0614 21.8188 26.9836 21.2671 25.8628 20.8154C24.7137 20.3868 22.9157 19.8227 20.4688 19.1231C18.8462 18.6716 17.6981 18.3327 17.0233 18.0845C16.2748 17.8353 15.6748 17.5872 15.1755 17.3171C14.8735 17.192 14.5951 17.0164 14.3522 16.7978C14.1529 16.6623 14.0771 16.5486 14.0771 16.4141H31.4552V6.66159H14.1529C9.88211 6.66159 6.83626 8.55727 5.01334 12.3726C3.06583 16.436 3.78942 20.1387 7.13626 23.4566C8.05919 24.3825 9.18344 25.1948 10.507 25.8945C11.9293 26.64 13.9276 27.3845 16.4741 28.1071C19.221 28.9204 20.5436 29.2812 20.3941 29.2363C21.318 29.5294 22.0426 29.8005 22.5917 30.0486L23.6153 30.5908C24.0638 30.9068 24.1645 31.426 23.9143 32.1706C23.6402 32.5324 23.1907 32.9161 22.5917 33.2769C21.0439 34.2247 18.6718 34.9702 15.4755 35.4895C11.5306 36.1892 6.56118 36.528 0.569153 36.528Z" fill="#002873"/>
</svg>
