<svg id="visual" viewBox="0 0 960 540" width="960" height="540" xmlns="http://www.w3.org/2000/svg" xmlns:xlink="http://www.w3.org/1999/xlink" version="1.1"><path d="M0 60L22.8 68.2C45.7 76.3 91.3 92.7 137 92.7C182.7 92.7 228.3 76.3 274 68.2C319.7 60 365.3 60 411.2 68.2C457 76.3 503 92.7 548.8 95.5C594.7 98.3 640.3 87.7 686 86.8C731.7 86 777.3 95 823 100.3C868.7 105.7 914.3 107.3 937.2 108.2L960 109L960 0L937.2 0C914.3 0 868.7 0 823 0C777.3 0 731.7 0 686 0C640.3 0 594.7 0 548.8 0C503 0 457 0 411.2 0C365.3 0 319.7 0 274 0C228.3 0 182.7 0 137 0C91.3 0 45.7 0 22.8 0L0 0Z" fill="#090a0b"></path><path d="M0 255L22.8 249.5C45.7 244 91.3 233 137 228.5C182.7 224 228.3 226 274 225.2C319.7 224.3 365.3 220.7 411.2 238.7C457 256.7 503 296.3 548.8 305.3C594.7 314.3 640.3 292.7 686 271C731.7 249.3 777.3 227.7 823 224C868.7 220.3 914.3 234.7 937.2 241.8L960 249L960 107L937.2 106.2C914.3 105.3 868.7 103.7 823 98.3C777.3 93 731.7 84 686 84.8C640.3 85.7 594.7 96.3 548.8 93.5C503 90.7 457 74.3 411.2 66.2C365.3 58 319.7 58 274 66.2C228.3 74.3 182.7 90.7 137 90.7C91.3 90.7 45.7 74.3 22.8 66.2L0 58Z" fill="#0f1012"></path><path d="M0 374L22.8 380.2C45.7 386.3 91.3 398.7 137 394.2C182.7 389.7 228.3 368.3 274 365.7C319.7 363 365.3 379 411.2 391.5C457 404 503 413 548.8 407.7C594.7 402.3 640.3 382.7 686 371.8C731.7 361 777.3 359 823 358C868.7 357 914.3 357 937.2 357L960 357L960 247L937.2 239.8C914.3 232.7 868.7 218.3 823 222C777.3 225.7 731.7 247.3 686 269C640.3 290.7 594.7 312.3 548.8 303.3C503 294.3 457 254.7 411.2 236.7C365.3 218.7 319.7 222.3 274 223.2C228.3 224 182.7 222 137 226.5C91.3 231 45.7 242 22.8 247.5L0 253Z" fill="#141517"></path><path d="M0 433L22.8 434.8C45.7 436.7 91.3 440.3 137 440.3C182.7 440.3 228.3 436.7 274 441.2C319.7 445.7 365.3 458.3 411.2 469.2C457 480 503 489 548.8 476.3C594.7 463.7 640.3 429.3 686 421.2C731.7 413 777.3 431 823 432.8C868.7 434.7 914.3 420.3 937.2 413.2L960 406L960 355L937.2 355C914.3 355 868.7 355 823 356C777.3 357 731.7 359 686 369.8C640.3 380.7 594.7 400.3 548.8 405.7C503 411 457 402 411.2 389.5C365.3 377 319.7 361 274 363.7C228.3 366.3 182.7 387.7 137 392.2C91.3 396.7 45.7 384.3 22.8 378.2L0 372Z" fill="#18191c"></path><path d="M0 541L22.8 541C45.7 541 91.3 541 137 541C182.7 541 228.3 541 274 541C319.7 541 365.3 541 411.2 541C457 541 503 541 548.8 541C594.7 541 640.3 541 686 541C731.7 541 777.3 541 823 541C868.7 541 914.3 541 937.2 541L960 541L960 404L937.2 411.2C914.3 418.3 868.7 432.7 823 430.8C777.3 429 731.7 411 686 419.2C640.3 427.3 594.7 461.7 548.8 474.3C503 487 457 478 411.2 467.2C365.3 456.3 319.7 443.7 274 439.2C228.3 434.7 182.7 438.3 137 438.3C91.3 438.3 45.7 434.7 22.8 432.8L0 431Z" fill="#1b1e21"></path></svg>