<svg id="visual" viewBox="0 0 960 540" width="960" height="540" xmlns="http://www.w3.org/2000/svg" xmlns:xlink="http://www.w3.org/1999/xlink" version="1.1"><path d="M0 104L26.7 110.2C53.3 116.3 106.7 128.7 160 124.2C213.3 119.7 266.7 98.3 320 89.3C373.3 80.3 426.7 83.7 480 92.7C533.3 101.7 586.7 116.3 640 127.2C693.3 138 746.7 145 800 136.8C853.3 128.7 906.7 105.3 933.3 93.7L960 82L960 0L933.3 0C906.7 0 853.3 0 800 0C746.7 0 693.3 0 640 0C586.7 0 533.3 0 480 0C426.7 0 373.3 0 320 0C266.7 0 213.3 0 160 0C106.7 0 53.3 0 26.7 0L0 0Z" fill="#e4f0ff"></path><path d="M0 201L26.7 209C53.3 217 106.7 233 160 220.3C213.3 207.7 266.7 166.3 320 158.3C373.3 150.3 426.7 175.7 480 191C533.3 206.3 586.7 211.7 640 222.5C693.3 233.3 746.7 249.7 800 244.3C853.3 239 906.7 212 933.3 198.5L960 185L960 80L933.3 91.7C906.7 103.3 853.3 126.7 800 134.8C746.7 143 693.3 136 640 125.2C586.7 114.3 533.3 99.7 480 90.7C426.7 81.7 373.3 78.3 320 87.3C266.7 96.3 213.3 117.7 160 122.2C106.7 126.7 53.3 114.3 26.7 108.2L0 102Z" fill="#dbebff"></path><path d="M0 347L26.7 362.2C53.3 377.3 106.7 407.7 160 416.7C213.3 425.7 266.7 413.3 320 415.2C373.3 417 426.7 433 480 425.7C533.3 418.3 586.7 387.7 640 368.8C693.3 350 746.7 343 800 346.7C853.3 350.3 906.7 364.7 933.3 371.8L960 379L960 183L933.3 196.5C906.7 210 853.3 237 800 242.3C746.7 247.7 693.3 231.3 640 220.5C586.7 209.7 533.3 204.3 480 189C426.7 173.7 373.3 148.3 320 156.3C266.7 164.3 213.3 205.7 160 218.3C106.7 231 53.3 215 26.7 207L0 199Z" fill="#cce3ff"></path><path d="M0 541L26.7 541C53.3 541 106.7 541 160 541C213.3 541 266.7 541 320 541C373.3 541 426.7 541 480 541C533.3 541 586.7 541 640 541C693.3 541 746.7 541 800 541C853.3 541 906.7 541 933.3 541L960 541L960 377L933.3 369.8C906.7 362.7 853.3 348.3 800 344.7C746.7 341 693.3 348 640 366.8C586.7 385.7 533.3 416.3 480 423.7C426.7 431 373.3 415 320 413.2C266.7 411.3 213.3 423.7 160 414.7C106.7 405.7 53.3 375.3 26.7 360.2L0 345Z" fill="#b8d8ff"></path></svg>